<?xml version="1.0" encoding="UTF-8"?>
<svg width="87px" height="80px" viewBox="0 0 87 80" version="1.1" xmlns="http://www.w3.org/2000/svg" xmlns:xlink="http://www.w3.org/1999/xlink">
    <!-- Generator: Sketch 46 (44423) - http://www.bohemiancoding.com/sketch -->
    <title>icon-premium</title>
    <desc>Created with Sketch.</desc>
    <defs></defs>
    <g id="Page-1" stroke="none" stroke-width="1" fill="none" fill-rule="evenodd">
        <g id="Desktop-HD" transform="translate(-842.000000, -1676.000000)">
            <g id="Group-15" transform="translate(335.000000, 15.000000)">
                <g id="Group-14" transform="translate(0.000000, 1491.000000)">
                    <g id="Group-10" transform="translate(69.000000, 130.000000)">
                        <g id="price-premium" transform="translate(331.000000, 0.000000)">
                            <g id="icon-premium" transform="translate(107.000000, 40.000000)">
                                <path d="M57.8640059,50.893617 L29.1366738,50.893617 C28.2593672,50.893617 27.5504531,50.1819574 27.5504531,49.3045106 L27.5504531,32.1479149 C27.5504531,31.2706383 28.2595371,30.5589787 29.1366738,30.5589787 L57.8640059,30.5589787 C58.7397832,30.5589787 59.4502266,31.2706383 59.4502266,32.1479149 L59.4502266,49.3046809 C59.4502266,50.1819574 58.7397832,50.893617 57.8640059,50.893617" id="Shape" fill="#E0E0E0"></path>
                                <polygon id="Shape" fill="#C3AFB1" points="39.15 56.7034894 47.85 56.7034894 47.85 50.893617 39.15 50.893617 39.15 56.7034894"></polygon>
                                <path d="M46.4000566,32.0114043 C45.5981953,32.0114043 44.9501133,31.3622128 44.9501133,30.5589787 L44.9501133,21.8440851 C44.9501133,21.0408511 45.5981953,20.3916596 46.4000566,20.3916596 C47.201918,20.3916596 47.85,21.0408511 47.85,21.8440851 L47.85,30.5589787 C47.85,31.3620426 47.201918,32.0114043 46.4000566,32.0114043" id="Shape" fill="#D6D5D5"></path>
                                <path d="M40.5999434,32.0114043 C39.798082,32.0114043 39.15,31.3622128 39.15,30.5589787 L39.15,24.7489362 C39.15,23.9457021 39.798082,23.2965106 40.5999434,23.2965106 C41.4018047,23.2965106 42.0498867,23.9457021 42.0498867,24.7489362 L42.0498867,30.5588085 C42.0500566,31.3620426 41.4018047,32.0114043 40.5999434,32.0114043" id="Shape" fill="#D6D5D5"></path>
                                <path d="M49.2999434,39.2737021 L37.6998867,39.2737021 C36.8980254,39.2737021 36.2499434,38.6245106 36.2499434,37.8212766 C36.2499434,37.0180426 36.8980254,36.3688511 37.6998867,36.3688511 L49.2999434,36.3688511 C50.1018047,36.3688511 50.7498867,37.0180426 50.7498867,37.8212766 C50.7498867,38.6245106 50.1018047,39.2737021 49.2999434,39.2737021" id="Shape" fill="#D6D5D5"></path>
                                <path d="M53.6499434,45.0837447 L33.3500566,45.0837447 C32.5481953,45.0837447 31.9001133,44.4345532 31.9001133,43.6313191 C31.9001133,42.8280851 32.5481953,42.1788936 33.3500566,42.1788936 L53.6501133,42.1788936 C54.4519746,42.1788936 55.1000566,42.8280851 55.1000566,43.6313191 C55.1000566,44.4345532 54.4518047,45.0837447 53.6499434,45.0837447" id="Shape" fill="#C3AFB1"></path>
                                <path d="M13.05,47.9885957 L13.05,47.9885957 C11.4549434,47.9885957 10.1499434,46.6813617 10.1499434,45.0835745 L10.1499434,21.8439149 C10.1499434,20.2461277 11.4549434,18.9388936 13.05,18.9388936 C14.6450566,18.9388936 15.9500566,20.2461277 15.9500566,21.8439149 L15.9500566,45.0835745 C15.9500566,46.6813617 14.6450566,47.9885957 13.05,47.9885957" id="Shape" fill="#F4F4F4"></path>
                                <path d="M14.0921309,11.6765957 L12.0085488,11.6765957 C10.9818809,11.6765957 10.1496035,10.8428936 10.1496035,9.816 L10.1496035,1.91744681 C10.1496035,0.890553191 10.9818809,0.0568510638 12.0085488,0.0568510638 L14.0921309,0.0568510638 C15.1187988,0.0568510638 15.9495469,0.890553191 15.9495469,1.91744681 L15.9495469,9.816 C15.9495469,10.8428936 15.1187988,11.6765957 14.0921309,11.6765957" id="Shape" fill="#F4F4F4"></path>
                                <path d="M18.3986309,79.9433191 L16.4020488,79.9433191 C15.3507422,79.9433191 14.4996035,79.0907234 14.4996035,78.0391489 L14.4996035,72.6808511 L20.2995469,72.6808511 L20.2995469,78.0389787 C20.2995469,79.0907234 19.4484082,79.9433191 18.3986309,79.9433191" id="Shape" fill="#F4F4F4"></path>
                                <path d="M52.5408633,77.0382979 L34.4594766,77.0382979 C33.8460586,77.0382979 33.3502266,76.541617 33.3502266,75.9271489 L33.3502266,57.8146383 C33.3502266,57.2001702 33.8460586,56.7034894 34.4594766,56.7034894 L52.5410332,56.7034894 C53.1529219,56.7034894 53.6502832,57.2001702 53.6502832,57.8146383 L53.6502832,75.9271489 C53.6501133,76.541617 53.152752,77.0382979 52.5408633,77.0382979" id="Shape" fill="#F4F4F4"></path>
                                <path d="M73.95,47.9885957 L73.95,47.9885957 C75.5450566,47.9885957 76.8500566,46.6813617 76.8500566,45.0835745 L76.8500566,21.8439149 C76.8500566,20.2461277 75.5450566,18.9388936 73.95,18.9388936 C72.3549434,18.9388936 71.0499434,20.2461277 71.0499434,21.8439149 L71.0499434,45.0835745 C71.0499434,46.6813617 72.3549434,47.9885957 73.95,47.9885957" id="Shape" fill="#F4F4F4"></path>
                                <path d="M72.9076992,11.6765957 L74.9912812,11.6765957 C76.0179492,11.6765957 76.8502266,10.8428936 76.8502266,9.816 L76.8502266,1.91744681 C76.8502266,0.890553191 76.0179492,0.0568510638 74.9912812,0.0568510638 L72.9076992,0.0568510638 C71.8810312,0.0568510638 71.0502832,0.890553191 71.0502832,1.91744681 L71.0502832,9.816 C71.0502832,10.8428936 71.8812012,11.6765957 72.9076992,11.6765957" id="Shape" fill="#F4F4F4"></path>
                                <path d="M68.6013691,79.9433191 L70.5979512,79.9433191 C71.6492578,79.9433191 72.5003965,79.0907234 72.5003965,78.0391489 L72.5003965,72.6808511 L66.7004531,72.6808511 L66.7004531,78.0389787 C66.7004531,79.0907234 67.5515918,79.9433191 68.6013691,79.9433191" id="Shape" fill="#F4F4F4"></path>
                                <polygon id="Shape" fill="#D6D5D5" points="27.5499434 46.5361702 15.9498867 36.3688511 15.9498867 27.6539574 27.5499434 36.3688511"></polygon>
                                <path d="M24.6500566,7.31914894 L1.44994336,7.31914894 C0.648082031,7.31914894 0,6.66995745 0,5.8667234 C0,5.06348936 0.648082031,4.41429787 1.44994336,4.41429787 L24.6498867,4.41429787 C25.451748,4.41429787 26.0998301,5.06348936 26.0998301,5.8667234 C26.0998301,6.66995745 25.451918,7.31914894 24.6500566,7.31914894" id="Shape" fill="#D6D5D5"></path>
                                <polygon id="Shape" fill="#F4F4F4" points="11.6000566 18.9390638 14.5001133 18.9390638 14.5001133 11.6765957 11.6000566 11.6765957"></polygon>
                                <path d="M27.5499434,49.4411915 L27.5499434,46.5361702 C22.7416641,46.5361702 14.4999434,60.6382979 14.4999434,72.6808511 L20.2998867,72.6808511 C20.2998867,60.6382979 29.9917207,50.893617 34.7998301,50.893617 L28.9998867,50.893617 C28.1242793,50.893617 27.5499434,50.3184681 27.5499434,49.4411915" id="Shape" fill="#D6D5D5"></path>
                                <polygon id="Shape" fill="#D6D5D5" points="59.4500566 46.5361702 71.0501133 36.3688511 71.0501133 27.6539574 59.4500566 36.3688511"></polygon>
                                <path d="M85.5500566,7.31914894 L62.3499434,7.31914894 C61.548082,7.31914894 60.9,6.66995745 60.9,5.8667234 C60.9,5.06348936 61.548082,4.41429787 62.3499434,4.41429787 L85.5498867,4.41429787 C86.351748,4.41429787 86.9998301,5.06348936 86.9998301,5.8667234 C86.9998301,6.66995745 86.351918,7.31914894 85.5500566,7.31914894" id="Shape" fill="#D6D5D5"></path>
                                <polygon id="Shape" fill="#F4F4F4" points="72.5000566 18.9390638 75.4001133 18.9390638 75.4001133 11.6765957 72.5000566 11.6765957"></polygon>
                                <path d="M59.4500566,49.4411915 L59.4500566,46.5361702 C64.2583359,46.5361702 72.5000566,60.6382979 72.5000566,72.6808511 L66.7001133,72.6808511 C66.7001133,60.6382979 57.0082793,50.893617 52.2001699,50.893617 L58.0001133,50.893617 C58.8757207,50.893617 59.4500566,50.3184681 59.4500566,49.4411915" id="Shape" fill="#D6D5D5"></path>
                                <path d="M47.85,66.8709787 C47.85,69.2777872 45.9026953,71.2284255 43.5,71.2284255 C41.0973047,71.2284255 39.15,69.2777872 39.15,66.8709787 C39.15,64.4641702 41.0973047,62.5135319 43.5,62.5135319 C45.9026953,62.5135319 47.85,64.4641702 47.85,66.8709787" id="Shape" fill="#C3AFB1"></path>
                            </g>
                        </g>
                    </g>
                </g>
            </g>
        </g>
    </g>
</svg>