<?xml version="1.0" encoding="UTF-8"?>
<svg width="259px" height="209px" viewBox="0 0 259 209" version="1.1" xmlns="http://www.w3.org/2000/svg" xmlns:xlink="http://www.w3.org/1999/xlink">
    <!-- Generator: Sketch 46 (44423) - http://www.bohemiancoding.com/sketch -->
    <title>Group 4</title>
    <desc>Created with Sketch.</desc>
    <defs></defs>
    <g id="Page-1" stroke="none" stroke-width="1" fill="none" fill-rule="evenodd" opacity="0.0557631341">
        <g id="Desktop-HD" transform="translate(-340.000000, -277.000000)">
            <g id="Group-15" transform="translate(335.000000, 15.000000)">
                <g id="Group-3" transform="translate(5.000000, 137.000000)">
                    <g id="Group-4">
                        <g transform="translate(-25.500000, 125.024695)" id="Group-16">
                            <g opacity="0.852977808">
                                <path d="M250.743343,66.054504 C235.466949,27.8086471 198.107543,0.773589513 154.410267,0.773589513 C114.175425,0.773589513 79.3179893,23.6971133 62.1172646,57.1823364 C62.7382908,57.1661727 63.3559141,57.134696 63.9803432,57.134696 C73.3578391,57.134696 82.3159295,58.9110011 90.5611159,62.1148158 C104.2909,41.4661195 127.758885,27.8503325 154.414521,27.8503325 C191.939817,27.8503325 223.145108,54.8292425 229.743299,90.4438199 C234.273388,88.8053315 239.158227,87.9095225 244.254045,87.9095225 C267.819012,87.9095225 286.922799,107.01331 286.922799,130.578277 C286.922799,154.144095 267.819012,173.247032 244.254045,173.247032 C230.521709,173.247032 218.313865,166.753479 210.509352,156.676691 C196.517546,171.707227 176.569844,181.119602 154.414521,181.119602 C143.198617,181.119602 132.55695,178.690794 122.955715,174.361476 C117.170813,182.142169 109.878434,188.731852 101.515848,193.713674 C117.005773,202.917622 135.086143,208.219315 154.411118,208.219315 C177.106649,208.219315 198.083723,200.90907 215.160243,188.543843 C223.911608,192.945473 233.787626,195.438085 244.250642,195.438085 C280.069392,195.438085 309.104494,166.402132 309.104494,130.584232 C309.104494,96.9577893 283.512259,69.3119141 250.743343,66.054504 Z" id="Shape" fill="#3B3B3B"></path>
                                <path d="M139.903775,93.1184862 L153.05592,102.464505 L98.7152752,160.453041 C98.7084694,160.446235 98.7016637,160.441131 98.6957086,160.435176 C90.7389166,168.719495 79.574907,173.898684 67.1824565,173.898684 C43.0355961,173.898684 23.4605095,154.324448 23.4605095,130.177587 C23.4605095,106.030727 43.0355961,86.4556405 67.1824565,86.4556405 C70.624473,86.4556405 73.958448,86.8954632 77.1716206,87.6466497 C78.9360156,80.0539662 81.8199593,72.896001 85.6499045,66.3522563 C79.7833336,64.6576204 73.5909366,63.7311854 67.1790536,63.7311854 C30.477255,63.7311854 0.725845747,93.4834454 0.725845747,130.183543 C0.725845747,166.885341 30.4781058,196.63675 67.1790536,196.63675 C86.7634981,196.63675 104.340241,188.138049 116.502147,174.658377 L116.575309,174.701764 L170.670095,114.97946 L182.617618,123.468803 L189.165617,75.7101856 L139.903775,93.1184862 Z" id="Shape" fill="#323232"></path>
                            </g>
                        </g>
                    </g>
                </g>
            </g>
        </g>
    </g>
</svg>